<svg xmlns="http://www.w3.org/2000/svg" xmlns:xlink="http://www.w3.org/1999/xlink" version="1.1" x="0px" y="0px" viewBox="0 0 5 6.25" enable-background="new 0 0 5 5" xml:space="preserve"><g><path d="M3.41,4.088c0,0-0.656,0.389-1.332,0.164C1.403,4.026,1.307,3.546,1.372,3.272c0.065-0.274,0.413-0.596,0.842-0.366   C2.643,3.137,2.429,3.667,2.128,3.65C2.128,3.65,2.314,4.213,3.41,4.088z"/><path d="M1.271,3.886c0,0-0.576-0.502-0.573-1.213c0.002-0.712,0.427-0.954,0.708-0.978C1.687,1.671,2.102,1.9,2.017,2.38   C1.933,2.859,1.362,2.822,1.284,2.532C1.284,2.532,0.808,2.884,1.271,3.886z"/><path d="M0.791,1.791c0,0,0.296-0.704,0.972-0.925c0.677-0.221,1.04,0.107,1.151,0.366c0.111,0.26,0.023,0.725-0.458,0.795   C1.974,2.098,1.83,1.544,2.082,1.379C2.082,1.379,1.597,1.037,0.791,1.791z"/><path d="M2.63,0.679c0,0,0.761,0.06,1.184,0.633c0.422,0.573,0.225,1.021,0.013,1.207s-0.681,0.25-0.899-0.186   C2.709,1.897,3.19,1.587,3.426,1.775C3.426,1.775,3.599,1.208,2.63,0.679z"/><path d="M4.263,2.076c0,0,0.182,0.741-0.23,1.322C3.621,3.979,3.134,3.932,2.891,3.789C2.647,3.647,2.44,3.221,2.785,2.877   C3.13,2.534,3.576,2.893,3.472,3.175C3.472,3.175,4.064,3.161,4.263,2.076z"/></g><text x="0" y="20" fill="#000000" font-size="5px" font-weight="bold" font-family="'Helvetica Neue', Helvetica, Arial-Unicode, Arial, Sans-serif">Created by Alice Noir</text><text x="0" y="25" fill="#000000" font-size="5px" font-weight="bold" font-family="'Helvetica Neue', Helvetica, Arial-Unicode, Arial, Sans-serif">from the Noun Project</text></svg>